<mxfile host="app.diagrams.net" modified="2024-05-13T10:10:23.546Z" agent="Mozilla/5.0 (Macintosh; Intel Mac OS X 10_15_7) AppleWebKit/537.36 (KHTML, like Gecko) Chrome/109.0.0.0 Safari/537.36" version="24.4.0" etag="cXm0Pv5Nodz0wOcRaeYY" type="github">
  <diagram name="Page-1" id="tLePEcgK2RN3Mv6Xjrlq">
    <mxGraphModel>
      <root>
        <mxCell id="0" />
        <mxCell id="1" parent="0" />
      </root>
    </mxGraphModel>
  </diagram>
</mxfile>
